<?xml version="1.0" encoding="utf-8"?>
<svg viewBox="0 0 576 512" xmlns="http://www.w3.org/2000/svg">
    <path d="M 314.726 13.303 C 326.906 2.19 345.621 2.19 357.702 13.303 L 563.671 202.139 C 573.276 210.892 576.445 224.661 571.691 236.758 C 566.938 248.856 555.254 256.724 542.182 256.724 L 510.495 256.724 L 510.495 366.878 C 510.495 392.941 489.205 414.086 462.964 414.086 L 278.88 414.086 C 260.56 349.961 218.178 295.966 161.933 262.33 L 161.933 256.724 L 152.13 256.724 C 135.791 247.872 118.462 240.791 100.341 235.48 C 96.281 223.678 99.549 210.597 108.758 202.04 L 314.726 13.205 L 314.726 13.303 Z M 304.527 193.779 C 295.813 193.779 288.683 200.86 288.683 209.515 L 288.683 272.46 C 288.683 281.115 295.813 288.196 304.527 288.196 L 367.902 288.196 C 376.616 288.196 383.745 281.115 383.745 272.46 L 383.745 209.515 C 383.745 200.86 376.616 193.779 367.902 193.779 L 304.527 193.779 Z M 27.262 256.724 C 154.11 256.724 256.996 358.911 256.996 484.9 C 256.996 497.98 246.4 508.504 233.23 508.504 C 220.06 508.504 209.464 497.98 209.464 484.9 C 209.464 384.974 127.869 303.933 27.262 303.933 C 14.091 303.933 3.496 293.409 3.496 280.328 C 3.496 267.247 14.091 256.724 27.262 256.724 Z M 35.183 508.504 C 17.656 508.504 3.496 494.44 3.496 477.032 C 3.496 459.623 17.656 445.559 35.183 445.559 C 52.711 445.559 66.871 459.623 66.871 477.032 C 66.871 494.44 52.711 508.504 35.183 508.504 Z M 3.496 374.746 C 3.496 361.665 14.091 351.141 27.262 351.141 C 101.628 351.141 161.933 411.038 161.933 484.9 C 161.933 497.98 151.338 508.504 138.168 508.504 C 124.998 508.504 114.402 497.98 114.402 484.9 C 114.402 437.101 75.387 398.35 27.262 398.35 C 14.091 398.35 3.496 387.827 3.496 374.746 Z"
          style="fill: rgb(255, 255, 255);"/>
</svg>